<?xml version="1.0" encoding="utf-8"?>
<svg xmlns="http://www.w3.org/2000/svg" viewBox="0 0 48 48" width="96" height="96">
  <path d="M9.5 22C8.671 22 8 21.329 8 20.5v-8.919l-1.026.342c-.784.265-1.635-.163-1.897-.949C4.815 10.189 5.24 9.339 6.026 9.077l3-1c.457-.153.959-.076 1.351.206C10.768 8.565 11 9.018 11 9.5v11C11 21.329 10.329 22 9.5 22zM20.5 40c-.829 0-1.5-.671-1.5-1.5v-8.919l-1.026.342c-.784.265-1.635-.163-1.897-.949-.262-.786.163-1.635.949-1.897l3-1c.457-.153.959-.076 1.351.206C21.768 26.565 22 27.018 22 27.5v11C22 39.329 21.329 40 20.5 40zM28.5 40c-.829 0-1.5-.671-1.5-1.5v-8.919l-1.026.342c-.784.265-1.635-.163-1.897-.949-.262-.786.163-1.635.949-1.897l3-1c.457-.153.959-.076 1.351.206C29.768 26.565 30 27.018 30 27.5v11C30 39.329 29.329 40 28.5 40zM30.5 22c-.829 0-1.5-.671-1.5-1.5v-8.919l-1.026.342c-.784.265-1.635-.163-1.897-.949-.262-.786.163-1.635.949-1.897l3-1c.457-.153.959-.076 1.351.206C31.768 8.565 32 9.018 32 9.5v11C32 21.329 31.329 22 30.5 22zM39.5 22c-.829 0-1.5-.671-1.5-1.5v-8.919l-1.026.342c-.784.265-1.635-.163-1.897-.949-.262-.786.163-1.635.949-1.897l3-1c.457-.153.959-.076 1.351.206C40.768 8.565 41 9.018 41 9.5v11C41 21.329 40.329 22 39.5 22zM38 40c-2.757 0-5-2.243-5-5v-4c0-2.757 2.243-5 5-5s5 2.243 5 5v4C43 37.757 40.757 40 38 40zM38 29c-1.103 0-2 .897-2 2v4c0 1.103.897 2 2 2s2-.897 2-2v-4C40 29.897 39.103 29 38 29zM19 22c-2.757 0-5-2.243-5-5v-4c0-2.757 2.243-5 5-5s5 2.243 5 5v4C24 19.757 21.757 22 19 22zM19 11c-1.103 0-2 .897-2 2v4c0 1.103.897 2 2 2s2-.897 2-2v-4C21 11.897 20.103 11 19 11zM10 40c-2.757 0-5-2.243-5-5v-4c0-2.757 2.243-5 5-5s5 2.243 5 5v4C15 37.757 12.757 40 10 40zM10 29c-1.103 0-2 .897-2 2v4c0 1.103.897 2 2 2s2-.897 2-2v-4C12 29.897 11.103 29 10 29z" fill="#103535" />
</svg>