<?xml version="1.0" encoding="utf-8"?>
<svg xmlns="http://www.w3.org/2000/svg" width="480" height="480" viewBox="0 0 512 512">
  <path fill="#FEBF10" d="M284.4,224c-2.4-20.6-6.1-41.5-14.4-60.7c-7.4-17.2-18.7-33.2-34.7-43.4c-18.9-12-41.4-17.2-63.7-16.6c-44.7,1.3-87.1,25.4-104.2,67.9c-18.3,45.5-11.7,101,11.8,143.4c6,10.8,12.9,21.2,21.3,30.3c7.5,8.2,16.5,15.1,25.5,21.5c17.5,12.4,42,27.2,64.1,18.8c1.2-0.4,2.2-0.5,3.1-0.2c1.2-2,3.5-3,5.6-2.9c0.5-1.8,2.1-3.3,4.6-3.2c2.4,0.1,4.8,0.3,7.3,0.8c-0.3-2.8,1.2-6,4.7-6.8c2.6-0.5,5.1-1.3,7.6-2.1c37.2-13.1,53.6-55.7,59.7-91.5C285.9,260.8,286.5,242.5,284.4,224z" />
  <path fill="#3AB37C" d="M334.5,336c-6.5,4-12.8,8.5-18.9,13.2c5,0.2,10,0.3,15,0.3c6.5,0,13.2-0.1,19.7-1.3C345.8,343.4,340.3,339.5,334.5,336z" />
  <path fill="#FEBF10" d="M228.5,398.2c-1.2-0.9-2.4-1.7-3.8-2.3c-6-2.9-14.4-6-20.4-6.2c-0.4,0-0.8-0.1-1.1-0.1c-0.6,6.2-2.6,11.9-5.2,17.7c-1.3,2.9-2.5,5.8-3.2,8.6c9.5-4.4,20.5-5.9,29.3-11.8c1.8-1.2,4-2.7,4.3-4.9c0.1-0.4,0.1-0.7,0.1-0.9C228.6,398.3,228.6,398.3,228.5,398.2z" />
  <path fill="#3AB37C" d="M429.1,185.2c-1.3-20.7-2.6-41.9-7.2-62.2c-5.7-25.2-15.2-50.9-32.5-70.6c-16.1-18.4-43.5-31.3-68.1-29.3c-22.1,1.8-40.5,15.1-56.5,29.6c-12.9,11.6-32.2,29.7-28.4,49.1c0.5,2.4-0.5,4.1-2.1,4.9c11.1,6.1,21.1,14,29.2,24.1c12.3,15.3,20.1,33.8,24.8,52.8c9.7,38.6,11.6,78.7,0.8,117.3c-0.8,3-1.7,5.9-2.7,8.9c1.6,0.3,3.1,1.4,3.7,3.6c4.1,14.9,20.9,13.8,35.2,11.1c1.3-2.3,4-3.8,7-2.2c0.3,0.2,0.7,0.4,1,0.5c1-0.2,2-0.4,2.9-0.6c0.6-0.3,1.4-0.5,2.2-0.5c0.5-0.1,1-0.1,1.5,0c19.8-0.8,39.1-12.1,54-24.5c14.6-12.2,26.4-28.4,31.3-47C430.8,229.1,430.5,206.9,429.1,185.2z" />
  <path fill="#010101" d="M439.7,178.7c-1.7-24.2-4-48.3-10.6-71.7c-6.8-24.4-18.2-50-37.2-67.4c-18.7-17-43-28.2-68.6-27.6c-22.9,0.5-41.9,12.7-59,26.8c-15.8,12.9-32.5,28.9-38.2,49.1c-1.3,4.7-1.6,9.8-0.7,14.6c-3.8-1.6-7.6-3.1-11.6-4.4c-43-13.7-92.9-3.4-126.7,26.3c-36.1,31.8-45.4,84.1-39.1,129.8c3.4,24.8,11.8,48.8,24.3,70.4c6.2,10.7,13.6,20.5,21.9,29.6c7.4,8.1,16.7,14.9,25.7,21.2c19.7,14,46,28.6,70.7,21.1c-1.2,3.3-2.7,6.5-4.1,9.7c-2.8,6.6-4.3,13.4-3.1,20.5c0.8,4.9,6,6.6,9.6,3.2c1.6-1.6,3.5-2.8,5.5-3.9c0,0.2-0.1,0.5-0.1,0.7c-0.4,9.5-1,19-1.8,28.5c-0.6,7.2-1.3,14.4-2.4,21.5c-0.4,2.6-0.9,5.2-1.6,7.7c-3,1.6-4.7,6-1.4,9c12.6,11.2,14.9-23.6,15.4-28.5c1.3-13,2.1-26,2.7-39c0.1-1.7-0.5-2.9-1.4-3.7c10.6-3.4,22.3-5.2,28.7-14.7c2.4-3.5,3.3-7.4,2.7-11.6c-0.6-4.5-5.3-7.3-8.8-9.3c-2.8-1.5-5.8-2.9-9-4.1c29.6-8.3,48.7-32.5,60.2-60.1c6,12.3,19,14.9,32.4,14.2c-5.8,4.3-11.5,8.8-17.3,13.1c-4.6,3.4-2,10,3.5,10c11.7,0,24.2,1.4,36.4,1c0.1,1.2,0.5,2.5,1.6,3.6c4.5,4.8,5.5,9.4,2.6,15.2c-2.5,5.1-6.8,9.4-10.4,13.8c-6.2,7.7-11.3,19.5-9.1,29.5c1.6,7.2,6.4,13.4,8.3,20.6c1.2,4.7,1,9.9,1,14.7c0,4.6-3.2,6.5-6.9,8.5c-6.3,3.3-0.1,12.4,6.2,9.1c4.9-2.6,9.1-6.1,10.9-11.6c1.5-4.7,0.8-9.9,0.6-14.7c-0.2-5.9-1.6-11.7-3.9-17.2c-1.6-3.7-3.8-7.1-5.1-10.8c-1.5-4,0-8.3,1.6-12.1c2.9-6.9,7.6-12,12.1-17.8c3.8-5,7.2-10.6,7.5-17c0.3-5.7-1.8-10.5-5-14.8c4.5-0.7,8.8-1.7,13.1-3.3c3.3-1.2,4.8-5.3,2.7-8.3c-4.4-6.3-10-11.6-16.2-16.2c19.6-2.9,38.2-14.2,53-26.6c17.1-14.3,29.5-32.8,35.2-54.4C442.5,227.7,441.4,202.5,439.7,178.7z M224.8,395.9c1.3,0.7,2.6,1.4,3.8,2.3c0.1,0,0.1,0.1,0.1,0.1c0,0.3,0,0.5-0.1,0.9c-0.3,2.2-2.5,3.7-4.3,4.9c-8.9,5.9-19.8,7.4-29.3,11.8c0.7-2.9,1.9-5.7,3.2-8.6c2.6-5.8,4.6-11.5,5.2-17.7c0.4,0.1,0.7,0.1,1.1,0.1C210.3,389.9,218.8,393,224.8,395.9z M282.8,279.2c-6.1,35.8-22.5,78.4-59.7,91.5c-2.5,0.9-5,1.6-7.6,2.1c-3.5,0.7-5,4-4.7,6.8c-2.5-0.4-4.9-0.7-7.3-0.8c-2.6-0.1-4.1,1.3-4.6,3.2c-2.1-0.1-4.4,0.9-5.6,2.9c-0.9-0.2-2-0.2-3.1,0.2c-22.1,8.4-46.6-6.3-64.1-18.8c-9-6.4-18-13.3-25.5-21.5c-8.3-9.1-15.3-19.5-21.3-30.3c-23.5-42.3-30.1-97.9-11.8-143.4c17.1-42.5,59.5-66.6,104.2-67.9c22.2-0.6,44.8,4.6,63.7,16.6c16,10.2,27.4,26.2,34.7,43.4c8.2,19.2,12,40.1,14.4,60.7C286.5,242.5,285.9,260.8,282.8,279.2z M350.4,348.2c-6.5,1.2-13.2,1.3-19.7,1.3c-5,0-10-0.1-15-0.3c6.1-4.6,12.3-9.2,18.9-13.2C340.3,339.5,345.8,343.4,350.4,348.2z M425.3,250.3c-4.9,18.6-16.7,34.8-31.3,47c-14.9,12.4-34.1,23.7-54,24.5c-0.5-0.1-1-0.1-1.5,0c-0.8,0-1.6,0.2-2.2,0.5c-0.9,0.2-1.9,0.4-2.9,0.6c-0.3-0.2-0.7-0.4-1-0.5c-3-1.6-5.8-0.1-7,2.2c-14.3,2.7-31.1,3.8-35.2-11.1c-0.6-2.2-2-3.3-3.7-3.6c1-3,1.9-5.9,2.7-8.9c10.7-38.6,8.9-78.7-0.8-117.3c-4.8-18.9-12.5-37.5-24.8-52.8c-8.2-10.1-18.1-18.1-29.2-24.1c1.6-0.9,2.6-2.5,2.1-4.9c-3.9-19.4,15.5-37.5,28.4-49.1c16-14.4,34.4-27.7,56.5-29.6c24.6-2,52,10.9,68.1,29.3c17.3,19.7,26.8,45.4,32.5,70.6c4.6,20.3,5.9,41.5,7.2,62.2C430.5,206.9,430.8,229.1,425.3,250.3z" />
</svg>